<svg id="Capa_1" data-name="Capa 1" xmlns="http://www.w3.org/2000/svg" viewBox="0 0 32 32"><defs><style>.cls-1{fill:#fffd02;}.cls-2{fill:#457227;}</style></defs><title>Favicon_circular_svg</title><circle cx="16" cy="16" r="16"/><path class="cls-1" d="M19.93,19.59c0,.22,0,.36,0,.49,0,.42-.14.63-.46.66-.48.05-.72-.08-.76-.53s0-1,0-1.54c0-2.79.05-5.59.06-8.38a3.85,3.85,0,0,0-.11-.83.43.43,0,0,0-.53-.35c-.27,0-.54.07-.81.08s-.57-.18-.58-.54A.54.54,0,0,1,17.3,8c.35,0,.7,0,1,.05s.68,0,1,0a.19.19,0,0,0,.08,0c.76-.07.91-.09.87.72,0,1.1-.09,2.2-.13,3.3v.25l.09.06a1.42,1.42,0,0,1,.14-.23A2.81,2.81,0,0,1,22.48,11a4,4,0,0,1,2.76.69,4.21,4.21,0,0,1,1.6,2.76,7.15,7.15,0,0,1-.3,3.75,3.81,3.81,0,0,1-3.19,2.65,3.3,3.3,0,0,1-3.14-.94Zm.2-3.8c.06.7.08,1.31.17,1.9a2.13,2.13,0,0,0,1.22,1.78,2.56,2.56,0,0,0,3.2-.81,4.13,4.13,0,0,0,.72-2.17,5,5,0,0,0-.59-3.08,2.25,2.25,0,0,0-2.39-1.15,2.36,2.36,0,0,0-2.11,1.79A12.74,12.74,0,0,0,20.13,15.79Z"/><path class="cls-2" d="M5.06,10h5.06v.36c0,2.74,0,5.48,0,8.22a3.85,3.85,0,0,0,.18,1.11,1.18,1.18,0,0,0,1.24.87,1.17,1.17,0,0,0,1.25-.87A3.93,3.93,0,0,0,13,18.54c0-2.73,0-5.46,0-8.2V10h.34c1.47,0,2.94,0,4.41,0,.27,0,.34.08.34.34q0,4.26,0,8.52a4.62,4.62,0,0,1-3.5,4.74,10.08,10.08,0,0,1-6.33-.12,4.5,4.5,0,0,1-3.15-4.38c0-3,0-5.93,0-8.89A1.62,1.62,0,0,1,5.06,10Z"/></svg>