<?xml version="1.0" encoding="iso-8859-1"?>
<!-- Generator: Adobe Illustrator 19.0.0, SVG Export Plug-In . SVG Version: 6.00 Build 0)  -->
<svg version="1.1" id="Layer_1" xmlns="http://www.w3.org/2000/svg" xmlns:xlink="http://www.w3.org/1999/xlink" x="0px" y="0px"
	 viewBox="0 0 512 512" style="enable-background:new 0 0 512 512;" xml:space="preserve">
<g>
	<g>
		<path d="M353.073,0H158.927c-55.168,0-99.85,44.624-99.85,99.792v108.384h19.045c27.922,0,51.284,22.681,51.284,50.604v47.858
			h253.187v-47.858c0-27.922,23.362-50.604,51.284-50.604h19.045V99.792C452.923,44.624,408.241,0,353.073,0z"/>
	</g>
</g>
<g>
	<g>
		<rect x="129.407" y="365.714" width="253.187" height="119.56"/>
	</g>
</g>
<g>
	<g>
		<path d="M78.122,236.308H25.319c-12.409,0-22.505,10.061-22.505,22.472V512h98.462V258.779
			C101.275,246.369,90.531,236.308,78.122,236.308z"/>
	</g>
</g>
<g>
	<g>
		<path d="M486.681,236.308h-52.804c-12.409,0-23.153,10.061-23.153,22.472V512h98.462V258.779
			C509.187,246.37,499.09,236.308,486.681,236.308z"/>
	</g>
</g>
<g>
</g>
<g>
</g>
<g>
</g>
<g>
</g>
<g>
</g>
<g>
</g>
<g>
</g>
<g>
</g>
<g>
</g>
<g>
</g>
<g>
</g>
<g>
</g>
<g>
</g>
<g>
</g>
<g>
</g>
</svg>
