<svg height="410pt" viewBox="-5 0 410 410.00112" width="410pt" xmlns="http://www.w3.org/2000/svg"><path d="m80 171.6875v36.3125h240v-36.3125c.027344-21.878906 14.824219-40.980469 36-46.480469v-93.5625c-.023438-8.445312-3.414062-16.535156-9.417969-22.476562-6.007812-5.9375-14.132812-9.2382815-22.582031-9.167969h-248c-8.445312-.0703125-16.574219 3.230469-22.578125 9.167969-6.007813 5.941406-9.398437 14.03125-9.421875 22.476562v93.5625c21.179688 5.5 35.972656 24.601563 36 46.480469zm0 0"/><path d="m28 384h64v26h-64zm0 0"/><path d="m308 384h64v26h-64zm0 0"/><path d="m80 224h240v64h-240zm0 0"/><path d="m368 139.6875c-17.664062.019531-31.980469 14.335938-32 32v124c.023438 4.480469-3.523438 8.167969-8 8.3125h-256c-4.476562-.144531-8.023438-3.832031-8-8.3125v-124c0-17.671875-14.328125-32-32-32s-32 14.328125-32 32v196.3125h400v-196.3125c-.019531-17.664062-14.335938-31.980469-32-32zm0 0"/></svg>