<svg height="512pt" viewBox="-97 0 512 512" width="512pt" xmlns="http://www.w3.org/2000/svg"><path d="m285.222656 232.507812c3.542969 0 7.011719.3125 10.390625.882813v-218.320313c0-8.324218-6.746093-15.070312-15.070312-15.070312h-243.621094c-8.324219 0-15.070313 6.746094-15.070313 15.070312v218.320313c3.382813-.570313 6.847657-.882813 10.390626-.882813zm0 0"/><path d="m4.910156 341.183594 9.585938 156.667968c.488281 7.949219 7.078125 14.148438 15.042968 14.148438h45.457032c8.324218 0 15.070312-6.746094 15.070312-15.070312v-155.746094zm0 0"/><path d="m227.398438 341.183594v155.746094c0 8.324218 6.746093 15.070312 15.070312 15.070312h45.457031c7.964844 0 14.554688-6.199219 15.042969-14.148438l9.582031-156.667968zm0 0"/><path d="m317.464844 311.042969v-16.15625c0-17.777344-14.464844-32.238281-32.242188-32.238281h-252.980468c-17.777344 0-32.242188 14.460937-32.242188 32.238281v16.15625zm0 0"/></svg>